<?xml version="1.0" encoding="utf-8"?>
<!DOCTYPE svg PUBLIC "-//W3C//DTD SVG 1.1//EN" "http://www.w3.org/Graphics/SVG/1.1/DTD/svg11.dtd">
<svg version="1.1" id="图形" xmlns="http://www.w3.org/2000/svg" xmlns:xlink="http://www.w3.org/1999/xlink" x="0px" y="0px" width="1024px" height="1024px" viewBox="0 0 1024 1024" enable-background="new 0 0 1024 1024" xml:space="preserve">
  <path fill="#eee" d="M512 204c-105.888 0-192 86.112-192 192s86.112 192 192 192 192-86.112 192-192S617.888 204 512 204zM512 524c-70.592 0-128-57.408-128-128s57.408-128 128-128c70.592 0 128 57.408 128 128S582.592 524 512 524zM512-148c-7.936 0-15.904 2.944-22.08 8.832-12.768 12.224-13.248 32.48-1.056 45.248C575.392-3.2 800 261.664 800 396c0 158.784-129.184 288-288 288-158.784 0-288-129.216-288-288 0-75.616 72.544-206.08 204.256-367.424 11.2-13.728 9.152-33.888-4.544-45.024-13.696-11.168-33.888-9.152-45.024 4.544C233.568 165.824 160 303.072 160 396 160 590.08 317.92 748 512 748s352-157.92 352-352c0-187.36-315.424-520.032-328.832-534.08C528.864-144.672 520.448-148 512-148z" transform="translate(0, 812) scale(1, -1)"/>
</svg>
