<?xml version="1.0" encoding="utf-8"?>
<!DOCTYPE svg PUBLIC "-//W3C//DTD SVG 1.1//EN" "http://www.w3.org/Graphics/SVG/1.1/DTD/svg11.dtd">
<svg version="1.1" id="图形" xmlns="http://www.w3.org/2000/svg" xmlns:xlink="http://www.w3.org/1999/xlink" x="0px" y="0px" width="1024px" height="1024px" viewBox="0 0 1024 1024" enable-background="new 0 0 1024 1024" xml:space="preserve">
  <path fill="#eee" d="M256.8 234.944l512.512 0c17.696 0 32 14.304 32 32s-14.304 32-32 32L256.8 298.944c-17.696 0-32-14.304-32-32S239.136 234.944 256.8 234.944zM256.8 42.944l512.512 0c17.696 0 32 14.304 32 32s-14.304 32-32 32L256.8 106.944c-17.696 0-32-14.304-32-32S239.136 42.944 256.8 42.944zM448 620l160 0c17.696 0 32 14.304 32 32s-14.304 32-32 32l-160 0c-17.696 0-32-14.304-32-32S430.304 620 448 620zM847.008 684 800 684c-17.696 0-32-14.304-32-32s14.304-32 32-32l47.008 0C852.992 620 864 607.84 864 588l0-96L160 492 160 588c0 17.664 14.048 32 31.328 32L256 620c17.696 0 32 14.304 32 32S273.696 684 256 684L191.328 684C138.752 684 96 640.928 96 588l0-640c0-52.928 43.072-96 96-96l640 0c52.928 0 96 43.072 96 96L928 588C928 640.928 891.648 684 847.008 684zM864-52c0-17.664-14.368-32-32-32L192-84c-17.632 0-32 14.336-32 32L160 428l704 0L864-52zM704 588c17.696 0 32 14.304 32 32L736 716c0 17.696-14.304 32-32 32s-32-14.304-32-32l0-96C672 602.304 686.304 588 704 588zM352 588c17.696 0 32 14.304 32 32L384 716c0 17.696-14.304 32-32 32s-32-14.304-32-32l0-96C320 602.304 334.304 588 352 588z" transform="translate(0, 812) scale(1, -1)"/>
</svg>
